<svg width="64" height="49" viewBox="0 0 64 49" fill="none" xmlns="http://www.w3.org/2000/svg">
<path d="M1.41569 46.9492H0.946569V42.2841H1.42221L3.98934 46.1673V42.2841H4.45195V46.9492H3.98934L1.41569 43.0659V46.9492ZM9.7484 44.6166C9.7484 46.0305 8.82971 47.0274 7.52659 47.0274C6.21696 47.0274 5.30478 46.0305 5.30478 44.6166C5.30478 43.2028 6.22348 42.1994 7.52659 42.1994C8.83622 42.1994 9.7484 43.1962 9.7484 44.6166ZM9.26625 44.6166C9.26625 43.4504 8.55605 42.6555 7.52659 42.6555C6.49713 42.6555 5.79345 43.4504 5.79345 44.6166C5.79345 45.7829 6.49713 46.5778 7.52659 46.5778C8.55605 46.5778 9.26625 45.7764 9.26625 44.6166ZM11.0682 42.2841V46.5192H13.2118V46.9492H10.599V42.2841H11.0682ZM14.3832 42.2841V46.5192H16.5268V46.9492H13.9141V42.2841H14.3832ZM17.8653 45.0011L16.2821 42.2841H16.8098L17.9631 44.2974C18.0152 44.3951 18.0543 44.4733 18.0999 44.5775C18.1585 44.4603 18.1585 44.4603 18.2432 44.2974L19.3835 42.2841H19.8982L18.3345 45.0011V46.9492H17.8653V45.0011ZM21.4502 46.9492L20.0624 42.2841H20.551L21.4958 45.4897C21.5609 45.7178 21.6196 45.9523 21.6782 46.2586C21.7564 45.9198 21.8216 45.7178 21.8932 45.4897L22.9097 42.2841H23.3983L24.4148 45.4897C24.4864 45.7243 24.5516 45.9589 24.6233 46.2586C24.6949 45.9002 24.7536 45.6722 24.8057 45.4962L25.77 42.2841H26.2456L24.8448 46.9492H24.4017L23.1507 42.9877L21.8998 46.9492H21.4502ZM30.9177 44.6166C30.9177 46.0305 29.999 47.0274 28.6959 47.0274C27.3862 47.0274 26.4741 46.0305 26.4741 44.6166C26.4741 43.2028 27.3927 42.1994 28.6959 42.1994C30.0055 42.1994 30.9177 43.1962 30.9177 44.6166ZM30.4355 44.6166C30.4355 43.4504 29.7253 42.6555 28.6959 42.6555C27.6664 42.6555 26.9627 43.4504 26.9627 44.6166C26.9627 45.7829 27.6664 46.5778 28.6959 46.5778C29.7253 46.5778 30.4355 45.7764 30.4355 44.6166ZM35.9253 44.6166C35.9253 46.0305 35.0066 47.0274 33.7034 47.0274C32.3938 47.0274 31.4816 46.0305 31.4816 44.6166C31.4816 43.2028 32.4003 42.1994 33.7034 42.1994C35.0131 42.1994 35.9253 43.1962 35.9253 44.6166ZM35.4431 44.6166C35.4431 43.4504 34.7329 42.6555 33.7034 42.6555C32.674 42.6555 31.9703 43.4504 31.9703 44.6166C31.9703 45.7829 32.674 46.5778 33.7034 46.5778C34.7329 46.5778 35.4431 45.7764 35.4431 44.6166ZM38.1963 46.9492H36.7759V42.2841H38.1833C39.5906 42.2841 40.5289 43.2223 40.5289 44.6166C40.5289 46.011 39.5971 46.9492 38.1963 46.9492ZM38.1637 42.7141H37.245V46.5192H38.1767C39.317 46.5192 40.0467 45.7764 40.0467 44.6166C40.0467 43.4504 39.317 42.7141 38.1637 42.7141ZM43.1833 46.9492H42.7077L44.4213 42.2841H45.0011L46.7343 46.9492H46.2456L45.7895 45.7113H43.6394L43.1833 46.9492ZM44.6493 42.9421L43.7827 45.3008H45.6397L44.7666 42.9421C44.747 42.877 44.7145 42.7988 44.7079 42.7532C44.7014 42.7923 44.6754 42.877 44.6493 42.9421ZM49.1008 47.0209C47.7977 47.0209 46.9116 46.0501 46.9116 44.6166C46.9116 43.1832 47.8107 42.2059 49.1269 42.2059C50.1303 42.2059 50.9187 42.8118 51.1076 43.737H50.6059C50.4105 43.0659 49.8371 42.6555 49.1073 42.6555C48.0844 42.6555 47.4003 43.4373 47.4003 44.6166C47.4003 45.7894 48.0844 46.5713 49.1073 46.5713C49.8436 46.5713 50.43 46.1739 50.632 45.5484H51.1337C50.9187 46.428 50.1042 47.0209 49.1008 47.0209ZM51.1954 42.7141V42.2841H54.5379V42.7141H53.098V46.9492H52.6289V42.7141H51.1954ZM59.1688 44.6166C59.1688 46.0305 58.2501 47.0274 56.947 47.0274C55.6374 47.0274 54.7252 46.0305 54.7252 44.6166C54.7252 43.2028 55.6439 42.1994 56.947 42.1994C58.2566 42.1994 59.1688 43.1962 59.1688 44.6166ZM58.6867 44.6166C58.6867 43.4504 57.9765 42.6555 56.947 42.6555C55.9175 42.6555 55.2139 43.4504 55.2139 44.6166C55.2139 45.7829 55.9175 46.5778 56.947 46.5778C57.9765 46.5778 58.6867 45.7764 58.6867 44.6166ZM60.4886 46.9492H60.0195V42.2841H61.7591C62.7039 42.2841 63.2773 42.8053 63.2773 43.6328C63.2773 44.3039 62.9254 44.773 62.326 44.9359L63.3229 46.9492H62.8016L61.8503 45.0141H60.4886V46.9492ZM60.4886 42.7076V44.5906H61.7722C62.4172 44.5906 62.7951 44.2387 62.7951 43.6458C62.7951 43.0399 62.3976 42.7076 61.7591 42.7076H60.4886Z" fill="black"/>
<path fill-rule="evenodd" clip-rule="evenodd" d="M5.82259 35.7444C12.6615 23.8423 19.5173 11.9488 26.3901 0.0641737C26.4261 0.030675 26.4689 0.00930519 26.5184 0C27.0171 0.264075 27.4984 0.552857 27.9623 0.866345C27.4254 1.8011 26.8799 2.73162 26.3259 3.6579C26.1651 3.98769 26.24 4.2551 26.5505 4.46007L29.6309 6.25694C29.9087 6.3308 30.1546 6.27734 30.3689 6.0965C30.8987 5.10014 31.4763 4.13754 32.1015 3.20869C32.5339 3.46236 32.9724 3.70834 33.4171 3.94668C33.4923 4.06656 33.4816 4.18425 33.385 4.29964C27.3429 14.7579 21.2998 25.2182 15.2559 35.6806C14.5928 35.7659 13.9297 35.7659 13.2666 35.6806C13.5288 35.2635 13.7747 34.8354 14.0046 34.3971C14.0956 34.0159 13.9566 33.7483 13.5874 33.5949C12.6571 33.0764 11.7372 32.5418 10.828 31.9906C10.4586 31.7365 10.1484 31.7904 9.89744 32.151L8.10057 35.2314C8.0687 35.3795 8.05804 35.5289 8.06846 35.6803C8.10324 35.6842 8.12457 35.7053 8.13252 35.7444C7.35351 35.829 6.58474 35.8291 5.82619 35.7449L5.82241 35.7448L5.82258 35.7445L5.82227 35.7444L5.82259 35.7444ZM25.5239 6.89912C25.2749 6.71539 24.9969 6.6405 24.6897 6.67451C24.6067 6.78977 24.5104 6.89675 24.4009 6.99538C23.8396 8.01125 23.262 9.0166 22.6682 10.0115C22.5328 10.2765 22.5649 10.5224 22.7645 10.7495L25.9732 12.6106C26.3221 12.7168 26.5894 12.6205 26.7753 12.3218C27.2939 11.3915 27.8287 10.4716 28.3797 9.56233C28.7095 9.16632 28.6774 8.81336 28.2834 8.50346C27.3531 7.98488 26.4332 7.45012 25.5239 6.89912ZM21.0314 13.0268C21.2335 13.0083 21.426 13.0404 21.609 13.1231C22.6039 13.7169 23.6093 14.2945 24.6252 14.8558C24.9357 15.0608 25.0106 15.3282 24.8498 15.658L22.9887 18.8666C22.7798 18.9904 22.5552 19.0225 22.3149 18.9629C21.32 18.3691 20.3146 17.7915 19.2987 17.2302C18.8844 16.9804 18.8095 16.6489 19.0741 16.2355C19.6465 15.2834 20.2027 14.3208 20.7426 13.3477C20.8303 13.2282 20.9266 13.1213 21.0314 13.0268ZM18.1438 19.6052C17.9134 19.4363 17.6567 19.3615 17.3737 19.3806C17.2205 19.5354 17.0814 19.7066 16.9565 19.894C16.4166 20.867 15.8604 21.8296 15.288 22.7818C15.1954 23.0842 15.2703 23.3301 15.5126 23.5198C16.4857 24.0597 17.4483 24.6159 18.4005 25.1883C18.8848 25.5404 19.2592 25.4442 19.5235 24.8995C19.9898 24.0273 20.4819 23.1716 20.9995 22.3326C21.1991 22.0616 21.2633 21.7621 21.192 21.4341C20.1919 20.8003 19.1758 20.1906 18.1438 19.6052ZM13.7155 25.7339C13.9486 25.7121 14.1624 25.7656 14.3573 25.8943C15.3522 26.4881 16.3576 27.0657 17.3734 27.627C17.6189 27.9242 17.6296 28.2348 17.4055 28.5575C16.8879 29.3969 16.3959 30.2524 15.9295 31.1245C15.6798 31.5391 15.3482 31.6135 14.9348 31.3491C13.9888 30.767 13.0262 30.2113 12.047 29.6806C11.6916 29.3989 11.6382 29.0671 11.8866 28.6859C12.4042 27.8465 12.8962 26.9911 13.3626 26.1189C13.4499 25.957 13.5675 25.8287 13.7155 25.7339ZM36.8826 6.03262C36.9988 6.03204 37.1059 6.06413 37.2035 6.12888L51.3217 14.2789C51.3769 14.3232 51.4192 14.3766 51.45 14.4394C49.4318 18.0378 47.357 21.5995 45.2252 25.1243C44.4012 25.744 43.5239 25.8296 42.5941 25.381C38.9464 23.247 35.2885 21.1293 31.6204 19.0278C30.7558 18.2756 30.5312 17.3665 30.9465 16.3004C32.9422 12.8866 34.9208 9.46392 36.8826 6.03262ZM60.8187 22.3969L60.8193 22.397L61.3343 21.4883L61.9103 20.4718C61.4636 20.1412 60.9932 19.8417 60.4985 19.5734C59.93 20.4971 59.3949 21.4381 58.8944 22.3965L58.8939 22.3963C58.7642 22.5052 58.6359 22.6121 58.5088 22.7172C58.5314 22.7139 58.5494 22.72 58.5633 22.7357C58.5495 22.7202 58.5315 22.7142 58.5091 22.7175C58.2761 22.7393 58.0624 22.6858 57.8673 22.5571C56.915 21.9847 55.9524 21.4285 54.9795 20.8885C54.7318 20.725 54.6356 20.5004 54.6907 20.2147C55.2471 19.2211 55.8138 18.2371 56.3913 17.2627C55.9126 16.9481 55.4204 16.6486 54.9154 16.3643C51.1767 22.7942 47.4546 29.2328 43.7493 35.6803C43.7146 35.6841 43.6928 35.7053 43.6851 35.7444C46.8344 35.8296 49.9734 35.8298 53.1021 35.7449L53.1185 35.7448C54.665 33.0542 56.2118 30.3627 57.7592 27.6701L57.7615 27.6661L59.5359 24.5785C59.4011 24.5066 59.2803 24.4181 59.1735 24.3131C59.2802 24.418 59.4009 24.5064 59.5356 24.5782C59.9866 23.8692 60.4145 23.1422 60.8187 22.3969ZM58.5363 22.8594L58.5363 22.8593L58.5123 22.8473L58.4451 22.8137L58.4449 22.8138L58.5363 22.8594ZM59.3946 22.3256C59.4088 22.3666 59.413 22.4116 59.4072 22.4605L59.4076 22.4604C59.4133 22.4115 59.409 22.3666 59.3946 22.3256ZM29.4384 22.9746C29.8149 23.1733 30.1785 23.3872 30.5294 23.6164C30.3806 23.6649 30.2095 23.7077 30.016 23.7447C30.0146 23.7699 30.0152 23.7945 30.0178 23.8188C30.0152 23.7946 30.0146 23.7701 30.016 23.745C30.2095 23.708 30.3806 23.6652 30.5294 23.6167C33.7577 25.4663 36.9878 27.3166 40.2196 29.1677C41.256 29.708 41.6514 30.5532 41.4068 31.7025C40.7247 33.0694 39.9867 34.4068 39.1929 35.7134C32.7113 35.7564 26.2298 35.7564 19.7482 35.7134C20.7197 34.059 21.6823 32.4014 22.636 30.7399C22.8744 30.7515 23.1098 30.7303 23.3419 30.6758C23.6145 30.5423 23.8605 30.3709 24.0799 30.1624C24.1181 29.9172 24.1501 29.6714 24.1762 29.4244C24.1776 29.3814 24.1761 29.3393 24.1716 29.298C24.176 29.3392 24.1776 29.3813 24.1762 29.4242C24.1501 29.6713 24.118 29.917 24.0799 30.1622C23.8605 30.3707 23.6144 30.5421 23.3419 30.6756C23.1097 30.7301 22.8744 30.7513 22.636 30.7397C22.741 30.5074 22.8694 30.2937 23.021 30.098C23.0203 30.1214 23.0225 30.1434 23.0276 30.164C23.0225 30.1435 23.0204 30.1215 23.0211 30.0982C23.0685 30.1065 23.1113 30.0956 23.1494 30.0661C23.2809 29.8999 23.4199 29.7395 23.5666 29.5848C23.7105 29.289 23.8281 28.9463 23.9195 28.558C23.9772 28.3726 24.0628 28.2012 24.1762 28.0446C24.3237 27.9927 24.4841 27.9285 24.6575 27.8521L25.3313 28.5259C25.5131 28.515 25.6094 28.4188 25.6201 28.2372L25.62 28.2371C25.6092 28.4185 25.5129 28.5146 25.3312 28.5255L24.6574 27.8517C24.484 27.928 24.3236 27.9922 24.1761 28.0442C25.0313 26.6337 25.8549 25.2005 26.6468 23.7446C26.7441 23.6329 26.8404 23.526 26.9356 23.4237C26.898 23.5739 26.8338 23.7129 26.7431 23.8408L26.7434 23.8409C26.834 23.7131 26.8981 23.5742 26.9357 23.4241C27.6572 22.6737 28.4915 22.524 29.4384 22.9749C29.4534 23.0073 29.4625 23.0369 29.4655 23.0638C29.4625 23.0368 29.4535 23.0071 29.4384 22.9746ZM23.021 30.098C23.2954 29.5679 23.5949 29.0546 23.9194 28.5579C23.8281 28.9461 23.7104 29.2888 23.5665 29.5846C23.4199 29.7393 23.2809 29.8997 23.1494 30.0659C23.1112 30.0955 23.0684 30.1064 23.021 30.098ZM29.5668 24.4827C29.6621 24.2358 29.8332 24.0753 30.08 24.0015L30.0802 24.0017C29.8333 24.0756 29.6622 24.236 29.5668 24.483C29.4564 24.5304 29.3495 24.5839 29.2461 24.6434L29.2459 24.6432C29.3494 24.5837 29.4563 24.5301 29.5668 24.4827ZM29.4063 25.4132L29.695 25.1246L29.6951 25.1247L29.4064 25.4135C28.9562 24.9527 28.4963 24.5035 28.0266 24.0659C28.0036 24.0285 27.9862 23.9899 27.9744 23.9503C27.9862 23.9898 28.0036 24.0283 28.0266 24.0656C28.4963 24.5032 28.9562 24.9524 29.4063 25.4132ZM28.3476 23.4241C28.3614 23.4538 28.3699 23.4834 28.373 23.5128C28.3699 23.4834 28.3614 23.4538 28.3475 23.4241L28.3476 23.4241ZM25.203 27.2104C25.1399 27.3374 25.0544 27.4443 24.9465 27.5311L24.9462 27.5308C25.0542 27.444 25.1397 27.3371 25.2028 27.2101L25.203 27.2104ZM25.3313 27.1141C25.2125 27.0712 25.16 27.0806 25.1737 27.1423C25.1596 27.0802 25.2122 27.0707 25.3312 27.1137L25.5986 27.381L26.1334 27.9159C26.1957 27.8004 26.2706 27.6933 26.3579 27.5952L26.3581 27.5954C26.2708 27.6936 26.1959 27.8008 26.1335 27.9163L25.5987 27.3815L25.3313 27.1141ZM26.2618 26.8895C26.182 27.0316 26.1559 27.1667 26.1834 27.295C26.1557 27.1666 26.1819 27.0313 26.2618 26.8891C26.3334 26.9933 26.4297 27.0575 26.5505 27.0816C26.6291 27.0824 26.6655 27.0689 26.6596 27.0412C26.6659 27.0692 26.6296 27.0828 26.5506 27.082C26.4298 27.0579 26.3335 26.9937 26.2618 26.8895ZM27.5774 26.1194C27.5124 26.6848 27.1917 26.9736 26.6152 26.9858L26.6147 26.9853C27.1913 26.9733 27.5121 26.6846 27.5773 26.1194L27.5774 26.1194ZM27.3207 25.7986L26.6793 26.5042L26.6789 26.504L27.3205 25.7982L27.3207 25.7986ZM27.6416 25.8307C27.4636 25.7327 27.2928 25.6473 27.1291 25.5743L27.1281 25.5735C27.2921 25.6465 27.4632 25.7321 27.6415 25.8302C28.2542 25.9128 28.5964 25.6456 28.6682 25.0285L28.6684 25.0285C28.5967 25.6459 28.2544 25.9132 27.6416 25.8307ZM28.4117 24.7076L27.7702 25.4132L27.7698 25.4131L28.4115 24.7073L28.4117 24.7076ZM27.064 24.3547L27.0655 24.3546C27.137 24.3707 27.2006 24.4026 27.2564 24.4505L27.2562 24.4506C27.2001 24.4026 27.136 24.3706 27.064 24.3547ZM26.9998 24.0017C26.9426 24.1674 26.9212 24.3384 26.9356 24.5147L26.9356 24.5147C26.9211 24.3383 26.9424 24.1672 26.9997 24.0014L26.9998 24.0017ZM53.6319 23.1351C53.4618 23.1032 53.2911 23.0925 53.1185 23.103C53.0421 23.1585 52.9677 23.2226 52.8939 23.2955C52.306 24.3861 51.6855 25.4557 51.0328 26.5042C50.9321 26.8272 51.0283 27.0732 51.3216 27.2422C52.2945 27.7819 53.2571 28.3383 54.2094 28.9107C54.6644 29.186 55.0174 29.0898 55.2683 28.6219C55.808 27.6491 56.3644 26.6863 56.9368 25.7341C57.0876 25.4615 57.0555 25.2155 56.8405 24.9961L53.6319 23.1351ZM49.4603 29.456C49.7677 29.422 50.0456 29.4971 50.2945 29.6806C51.2039 30.2319 52.1235 30.7664 53.054 31.285C53.362 31.5814 53.3941 31.9126 53.1503 32.2797C52.5778 33.232 52.0215 34.1946 51.4818 35.1675C51.286 35.4004 51.0402 35.4755 50.7438 35.3921L47.5351 33.531C47.3233 33.2878 47.2912 33.0202 47.4388 32.7289L48.3376 31.1881L49.2357 29.6485C49.3095 29.5754 49.3839 29.5112 49.4603 29.456Z" fill="black"/>
</svg>
